<svg xmlns="http://www.w3.org/2000/svg" width="1120" height="680" viewBox="0 0 1120 680">
  <rect width="1120" height="680" fill="#e8e5dc"/><rect x="45" y="46" width="1030" height="588" fill="#fffefa" stroke="#23251f" stroke-width="4"/>
  <rect x="45" y="46" width="1030" height="54" fill="#303a48"/><text x="76" y="80" fill="#fff" font-family="monospace" font-size="17">ARTICLE NETWORK / CENTRALITY VIEW</text>
  <g stroke="#8d968a" stroke-width="3"><path d="M205 258 395 185 557 315 773 206 904 389 711 499 460 490 205 258M395 185l65 305M557 315l347 74M773 206l-62 293"/></g>
  <g fill="#4f623e" stroke="#fffefa" stroke-width="6"><circle cx="205" cy="258" r="34"/><circle cx="395" cy="185" r="45"/><circle cx="557" cy="315" r="57"/><circle cx="773" cy="206" r="31"/><circle cx="904" cy="389" r="42"/><circle cx="711" cy="499" r="36"/><circle cx="460" cy="490" r="29"/></g>
  <rect x="72" y="528" width="284" height="74" fill="#edf0e8" stroke="#9ca296"/><text x="92" y="558" fill="#676b61" font-family="monospace" font-size="12">H-INDEX</text><text x="92" y="587" fill="#23251f" font-family="monospace" font-size="22" font-weight="700">12 / CALCULATED</text>
</svg>
