<svg xmlns="http://www.w3.org/2000/svg" width="1120" height="680" viewBox="0 0 1120 680">
  <rect width="1120" height="680" fill="#e3ddd1"/><rect x="52" y="50" width="1016" height="580" fill="#fffefa" stroke="#23251f" stroke-width="4"/>
  <text x="85" y="94" fill="#23251f" font-family="monospace" font-size="18" font-weight="700">RETAIL CATEGORY PREDICTOR</text>
  <g transform="translate(85 136)"><rect width="565" height="430" fill="#edf0e8" stroke="#8c9288"/><path d="M0 72h565M0 144h565M0 216h565M0 288h565M0 360h565M145 0v430M300 0v430M440 0v430" stroke="#aeb3aa"/><rect x="2" y="2" width="561" height="68" fill="#4f623e"/><text x="20" y="42" fill="#fff" font-family="monospace" font-size="14">ITEM / PRICE / SALES / CATEGORY</text><rect x="302" y="218" width="136" height="68" fill="#d7e5c9"/><text x="323" y="258" fill="#23251f" font-family="monospace" font-size="13">ELECTRONICS</text></g>
  <rect x="697" y="136" width="322" height="194" fill="#f1e8d8" stroke="#9d7a45"/><text x="722" y="175" fill="#9d7a45" font-family="monospace" font-size="12">MODEL COMPARISON</text><text x="722" y="222" fill="#23251f" font-family="monospace" font-size="20" font-weight="700">KNN  /  84%</text><text x="722" y="262" fill="#23251f" font-family="monospace" font-size="20" font-weight="700">TREE /  88%</text>
  <rect x="697" y="356" width="322" height="210" fill="#e2e8ed" stroke="#55718c"/><text x="722" y="395" fill="#55718c" font-family="monospace" font-size="12">PREDICTION</text><circle cx="780" cy="475" r="52" fill="#55718c"/><path d="m756 476 17 17 33-40" fill="none" stroke="#fff" stroke-width="9"/><text x="856" y="469" fill="#23251f" font-family="monospace" font-size="15">CATEGORY</text><text x="856" y="494" fill="#23251f" font-family="monospace" font-size="15" font-weight="700">FOUND</text>
</svg>
