<svg xmlns="http://www.w3.org/2000/svg" width="720" height="440" viewBox="0 0 720 440">
  <rect width="720" height="440" fill="#ead7ac"/><rect y="268" width="720" height="172" fill="#68a3ad"/><circle cx="570" cy="92" r="50" fill="#d8a348"/>
  <path d="M0 293c94-21 165 18 243 2 89-18 151-18 242 5 82 21 151-6 235-2v142H0Z" fill="#3e7e8a"/>
  <path d="M55 269v-96h82v96M164 269V132h104v137M292 269v-72h76v72M400 269V112h118v157M548 269v-89h111v89" fill="#f3e7cb" stroke="#805c39" stroke-width="4"/>
  <path d="M445 112V65h28v47M454 65q5-21 10 0M200 132V82h25v50M206 82q6-19 12 0" fill="#f3e7cb" stroke="#805c39" stroke-width="4"/>
  <g fill="#4d716d"><rect x="78" y="205" width="17" height="64"/><rect x="184" y="170" width="18" height="99"/><rect x="424" y="154" width="22" height="115"/><rect x="580" y="212" width="19" height="57"/></g>
  <text x="30" y="48" fill="#583e29" font-family="monospace" font-size="18" font-weight="700">TRIPOLI / 32.8872°N</text>
</svg>
