<svg xmlns="http://www.w3.org/2000/svg" width="1120" height="680" viewBox="0 0 1120 680">
  <rect width="1120" height="680" fill="#ece8dc"/><path d="M0 110h1120M0 220h1120M0 330h1120M0 440h1120M0 550h1120" stroke="#d2cec2"/>
  <rect x="61" y="70" width="998" height="540" fill="#fffefa" stroke="#23251f" stroke-width="4"/><text x="92" y="112" fill="#23251f" font-family="monospace" font-size="18" font-weight="700">MEMOCORE / CONVERSATION FLOW</text>
  <rect x="98" y="162" width="300" height="84" rx="18" fill="#dce5d2" stroke="#4f623e" stroke-width="2"/><text x="124" y="196" fill="#23251f" font-family="monospace" font-size="15">“remind me to submit</text><text x="124" y="220" fill="#23251f" font-family="monospace" font-size="15">the report tomorrow”</text>
  <path d="M398 204h96" stroke="#4f623e" stroke-width="3"/><path d="m485 196 12 8-12 8" fill="none" stroke="#4f623e" stroke-width="3"/>
  <rect x="502" y="146" width="222" height="116" fill="#f0ead8" stroke="#a27d42" stroke-width="2"/><text x="530" y="181" fill="#a27d42" font-family="monospace" font-size="12">PARSED INTENT</text><text x="530" y="215" fill="#23251f" font-family="monospace" font-size="17" font-weight="700">TASK + DATE</text>
  <path d="M613 262v87" stroke="#4f623e" stroke-width="3"/><path d="m605 340 8 12 8-12" fill="none" stroke="#4f623e" stroke-width="3"/>
  <circle cx="613" cy="427" r="75" fill="#2f6591"/><path d="M613 385v45l29 18" fill="none" stroke="#fff" stroke-width="7" stroke-linecap="round"/><text x="613" y="533" text-anchor="middle" fill="#23251f" font-family="monospace" font-size="14">SCHEDULED JOB</text>
  <rect x="780" y="350" width="225" height="154" fill="#fff" stroke="#8b9087" stroke-width="2"/><rect x="780" y="350" width="225" height="36" fill="#4f623e"/><text x="801" y="374" fill="#fff" font-family="monospace" font-size="12">CALENDAR</text><text x="808" y="430" fill="#23251f" font-family="monospace" font-size="30" font-weight="700">24</text><text x="862" y="425" fill="#676b61" font-family="monospace" font-size="12">REPORT</text><text x="862" y="446" fill="#676b61" font-family="monospace" font-size="12">09:00</text>
  <path d="M688 427h78" stroke="#4f623e" stroke-width="3"/><path d="m757 419 12 8-12 8" fill="none" stroke="#4f623e" stroke-width="3"/>
</svg>
